<svg width="86" height="85" viewBox="0 0 86 85" fill="none" xmlns="http://www.w3.org/2000/svg">
<path fill-rule="evenodd" clip-rule="evenodd" d="M85.9971 38.3542L85.0789 50.3958L77.5663 49.9375C76.4398 55.4753 73.9352 60.6409 70.2833 64.9583L76.1473 72.0208L66.7983 79.7292L61.0387 72.7917C56.9842 75.1296 52.4981 76.6249 47.85 77.1875L47.2448 85L35.2038 84.1042L35.7881 76.4792C30.7027 75.3443 25.9472 73.056 21.8899 69.7917L16.2555 74.5833L8.38813 65.3958L13.9599 60.6875C11.0315 55.8763 9.34629 50.414 9.05591 44.7917L0.938171 44.1667L1.83551 32.1458L10.4541 32.7917C11.8776 28.0854 14.3053 23.7428 17.5702 20.0625L13.1252 14.7083L22.4742 7L27.0026 12.5C31.2742 10.095 36.0293 8.67154 40.9217 8.33333L41.5477 0L53.5887 0.895833L52.9418 9.375C57.7489 10.7138 62.2066 13.0811 66.0053 16.3125L72.6205 10.7083L80.467 19.8958L73.7892 25.5833C75.9555 29.3387 77.3728 33.4774 77.9628 37.7708L85.9971 38.3542ZM23.2999 41.2429C22.445 52.4358 30.8374 62.2028 42.0486 63.0625C47.4429 63.4873 52.7841 61.7472 56.8892 58.2278C60.9942 54.7084 63.5241 49.7001 63.9185 44.3125C64.761 33.1186 56.3579 23.3609 45.1457 22.5136C33.9336 21.6662 24.1548 30.05 23.2999 41.2429Z" fill="#505F98"/>
</svg>
